<?xml version="1.0" encoding="UTF-8"?>
<!--
  SendPalm mark (32 viewBox, transparent background)
  Used by the topbar (BrandMark.tsx) and any other inline embed.
  Exact mirror of the prototype-v11 topbar-logo-mark:
    - 26px-ish rounded green plate (rx 7)
    - Phosphor paper-plane-tilt, white
    - Canary dot in the top-right with a 1.5px white border
-->
<svg xmlns="http://www.w3.org/2000/svg" viewBox="0 0 32 32" role="img" aria-label="SendPalm mark">
  <rect x="0" y="0" width="32" height="32" rx="7" fill="#0a8f63"/>
  <svg x="6" y="6" width="20" height="20" viewBox="0 0 256 256">
    <path d="M231.4,44.34s0,.1,0,.15l-58.2,191.94a15.88,15.88,0,0,1-14,11.51q-.69.06-1.38.06a15.86,15.86,0,0,1-14.42-9.15L107,164.15a4,4,0,0,1,.77-4.58l57.92-57.92a8,8,0,0,0-11.31-11.31L96.43,148.26a4,4,0,0,1-4.58.77L17.08,112.64a16,16,0,0,1,2.49-29.8l191.94-58.2.15,0A16,16,0,0,1,231.4,44.34Z" fill="#ffffff"/>
  </svg>
  <circle cx="25" cy="5" r="4" fill="#fff5ca" stroke="#ffffff" stroke-width="1.2"/>
</svg>
